<mxfile host="app.diagrams.net" agent="Mozilla/5.0 (Windows NT 10.0; Win64; x64) AppleWebKit/537.36 (KHTML, like Gecko) Chrome/131.0.0.0 Safari/537.36 Edg/131.0.0.0" version="25.0.3">
  <diagram name="Страница — 1" id="BYr-S_5UHETh9rV4C7v4">
    <mxGraphModel dx="1912" dy="2217" grid="1" gridSize="10" guides="1" tooltips="1" connect="1" arrows="1" fold="1" page="1" pageScale="1" pageWidth="827" pageHeight="1169" math="0" shadow="0">
      <root>
        <mxCell id="0" />
        <mxCell id="1" parent="0" />
        <mxCell id="77w_7Mb7cASkEfUO3HJ_-63" value="" style="rounded=0;whiteSpace=wrap;html=1;" parent="1" vertex="1">
          <mxGeometry x="250" y="-527.5" width="670" height="1017.5" as="geometry" />
        </mxCell>
        <mxCell id="77w_7Mb7cASkEfUO3HJ_-49" style="rounded=0;orthogonalLoop=1;jettySize=auto;html=1;exitX=0;exitY=0.3333333333333333;exitDx=0;exitDy=0;exitPerimeter=0;entryX=1;entryY=0.5;entryDx=0;entryDy=0;" parent="1" source="77w_7Mb7cASkEfUO3HJ_-1" target="77w_7Mb7cASkEfUO3HJ_-7" edge="1">
          <mxGeometry relative="1" as="geometry" />
        </mxCell>
        <mxCell id="77w_7Mb7cASkEfUO3HJ_-50" style="rounded=0;orthogonalLoop=1;jettySize=auto;html=1;exitX=0;exitY=0.3333333333333333;exitDx=0;exitDy=0;exitPerimeter=0;entryX=1;entryY=0.5;entryDx=0;entryDy=0;" parent="1" source="77w_7Mb7cASkEfUO3HJ_-1" target="77w_7Mb7cASkEfUO3HJ_-9" edge="1">
          <mxGeometry relative="1" as="geometry" />
        </mxCell>
        <mxCell id="77w_7Mb7cASkEfUO3HJ_-51" style="rounded=0;orthogonalLoop=1;jettySize=auto;html=1;exitX=0;exitY=0.3333333333333333;exitDx=0;exitDy=0;exitPerimeter=0;entryX=1;entryY=0.5;entryDx=0;entryDy=0;" parent="1" source="77w_7Mb7cASkEfUO3HJ_-1" target="77w_7Mb7cASkEfUO3HJ_-11" edge="1">
          <mxGeometry relative="1" as="geometry" />
        </mxCell>
        <mxCell id="77w_7Mb7cASkEfUO3HJ_-52" style="rounded=0;orthogonalLoop=1;jettySize=auto;html=1;exitX=0;exitY=0.3333333333333333;exitDx=0;exitDy=0;exitPerimeter=0;entryX=1;entryY=0.5;entryDx=0;entryDy=0;" parent="1" source="77w_7Mb7cASkEfUO3HJ_-1" target="77w_7Mb7cASkEfUO3HJ_-13" edge="1">
          <mxGeometry relative="1" as="geometry" />
        </mxCell>
        <mxCell id="77w_7Mb7cASkEfUO3HJ_-53" style="rounded=0;orthogonalLoop=1;jettySize=auto;html=1;exitX=0;exitY=0.3333333333333333;exitDx=0;exitDy=0;exitPerimeter=0;entryX=1;entryY=0.5;entryDx=0;entryDy=0;" parent="1" source="77w_7Mb7cASkEfUO3HJ_-1" target="77w_7Mb7cASkEfUO3HJ_-15" edge="1">
          <mxGeometry relative="1" as="geometry" />
        </mxCell>
        <mxCell id="77w_7Mb7cASkEfUO3HJ_-54" style="rounded=0;orthogonalLoop=1;jettySize=auto;html=1;exitX=0;exitY=0.3333333333333333;exitDx=0;exitDy=0;exitPerimeter=0;entryX=1;entryY=0.5;entryDx=0;entryDy=0;" parent="1" source="77w_7Mb7cASkEfUO3HJ_-1" target="77w_7Mb7cASkEfUO3HJ_-16" edge="1">
          <mxGeometry relative="1" as="geometry" />
        </mxCell>
        <mxCell id="77w_7Mb7cASkEfUO3HJ_-55" style="rounded=0;orthogonalLoop=1;jettySize=auto;html=1;exitX=0;exitY=0.3333333333333333;exitDx=0;exitDy=0;exitPerimeter=0;entryX=1;entryY=0.5;entryDx=0;entryDy=0;" parent="1" source="77w_7Mb7cASkEfUO3HJ_-1" target="77w_7Mb7cASkEfUO3HJ_-17" edge="1">
          <mxGeometry relative="1" as="geometry" />
        </mxCell>
        <mxCell id="77w_7Mb7cASkEfUO3HJ_-56" style="rounded=0;orthogonalLoop=1;jettySize=auto;html=1;exitX=0;exitY=0.3333333333333333;exitDx=0;exitDy=0;exitPerimeter=0;entryX=1;entryY=0.5;entryDx=0;entryDy=0;" parent="1" source="77w_7Mb7cASkEfUO3HJ_-1" target="77w_7Mb7cASkEfUO3HJ_-18" edge="1">
          <mxGeometry relative="1" as="geometry" />
        </mxCell>
        <mxCell id="77w_7Mb7cASkEfUO3HJ_-57" style="rounded=0;orthogonalLoop=1;jettySize=auto;html=1;exitX=0;exitY=0.3333333333333333;exitDx=0;exitDy=0;exitPerimeter=0;entryX=1;entryY=0.5;entryDx=0;entryDy=0;" parent="1" source="77w_7Mb7cASkEfUO3HJ_-1" target="77w_7Mb7cASkEfUO3HJ_-19" edge="1">
          <mxGeometry relative="1" as="geometry" />
        </mxCell>
        <mxCell id="77w_7Mb7cASkEfUO3HJ_-58" style="rounded=0;orthogonalLoop=1;jettySize=auto;html=1;exitX=0;exitY=0.3333333333333333;exitDx=0;exitDy=0;exitPerimeter=0;entryX=1;entryY=0.5;entryDx=0;entryDy=0;" parent="1" source="77w_7Mb7cASkEfUO3HJ_-1" target="77w_7Mb7cASkEfUO3HJ_-20" edge="1">
          <mxGeometry relative="1" as="geometry" />
        </mxCell>
        <mxCell id="77w_7Mb7cASkEfUO3HJ_-59" style="rounded=0;orthogonalLoop=1;jettySize=auto;html=1;exitX=0;exitY=0.3333333333333333;exitDx=0;exitDy=0;exitPerimeter=0;entryX=1;entryY=0.5;entryDx=0;entryDy=0;" parent="1" source="77w_7Mb7cASkEfUO3HJ_-1" target="77w_7Mb7cASkEfUO3HJ_-21" edge="1">
          <mxGeometry relative="1" as="geometry" />
        </mxCell>
        <mxCell id="77w_7Mb7cASkEfUO3HJ_-60" style="rounded=0;orthogonalLoop=1;jettySize=auto;html=1;exitX=0;exitY=0.3333333333333333;exitDx=0;exitDy=0;exitPerimeter=0;entryX=1;entryY=0.5;entryDx=0;entryDy=0;" parent="1" source="77w_7Mb7cASkEfUO3HJ_-1" target="77w_7Mb7cASkEfUO3HJ_-22" edge="1">
          <mxGeometry relative="1" as="geometry" />
        </mxCell>
        <mxCell id="77w_7Mb7cASkEfUO3HJ_-61" style="rounded=0;orthogonalLoop=1;jettySize=auto;html=1;exitX=0;exitY=0.3333333333333333;exitDx=0;exitDy=0;exitPerimeter=0;entryX=1;entryY=0.5;entryDx=0;entryDy=0;" parent="1" source="77w_7Mb7cASkEfUO3HJ_-1" target="77w_7Mb7cASkEfUO3HJ_-23" edge="1">
          <mxGeometry relative="1" as="geometry" />
        </mxCell>
        <mxCell id="77w_7Mb7cASkEfUO3HJ_-62" style="rounded=0;orthogonalLoop=1;jettySize=auto;html=1;exitX=0;exitY=0.3333333333333333;exitDx=0;exitDy=0;exitPerimeter=0;entryX=1;entryY=0.5;entryDx=0;entryDy=0;" parent="1" source="77w_7Mb7cASkEfUO3HJ_-1" target="77w_7Mb7cASkEfUO3HJ_-25" edge="1">
          <mxGeometry relative="1" as="geometry" />
        </mxCell>
        <mxCell id="77w_7Mb7cASkEfUO3HJ_-1" value="Пользователь" style="shape=umlActor;verticalLabelPosition=bottom;verticalAlign=top;html=1;outlineConnect=0;" parent="1" vertex="1">
          <mxGeometry x="1050" y="-30" width="30" height="60" as="geometry" />
        </mxCell>
        <mxCell id="77w_7Mb7cASkEfUO3HJ_-42" style="rounded=0;orthogonalLoop=1;jettySize=auto;html=1;exitX=1;exitY=0.3333333333333333;exitDx=0;exitDy=0;exitPerimeter=0;entryX=0;entryY=0.5;entryDx=0;entryDy=0;" parent="1" source="77w_7Mb7cASkEfUO3HJ_-2" target="77w_7Mb7cASkEfUO3HJ_-6" edge="1">
          <mxGeometry relative="1" as="geometry" />
        </mxCell>
        <mxCell id="77w_7Mb7cASkEfUO3HJ_-43" style="rounded=0;orthogonalLoop=1;jettySize=auto;html=1;exitX=1;exitY=0.3333333333333333;exitDx=0;exitDy=0;exitPerimeter=0;entryX=0;entryY=0.5;entryDx=0;entryDy=0;" parent="1" source="77w_7Mb7cASkEfUO3HJ_-2" target="77w_7Mb7cASkEfUO3HJ_-26" edge="1">
          <mxGeometry relative="1" as="geometry" />
        </mxCell>
        <mxCell id="77w_7Mb7cASkEfUO3HJ_-44" style="rounded=0;orthogonalLoop=1;jettySize=auto;html=1;exitX=1;exitY=0.3333333333333333;exitDx=0;exitDy=0;exitPerimeter=0;entryX=0;entryY=0.5;entryDx=0;entryDy=0;" parent="1" source="77w_7Mb7cASkEfUO3HJ_-2" target="77w_7Mb7cASkEfUO3HJ_-27" edge="1">
          <mxGeometry relative="1" as="geometry" />
        </mxCell>
        <mxCell id="77w_7Mb7cASkEfUO3HJ_-45" style="rounded=0;orthogonalLoop=1;jettySize=auto;html=1;exitX=1;exitY=0.3333333333333333;exitDx=0;exitDy=0;exitPerimeter=0;entryX=0;entryY=0.5;entryDx=0;entryDy=0;" parent="1" source="77w_7Mb7cASkEfUO3HJ_-2" target="77w_7Mb7cASkEfUO3HJ_-28" edge="1">
          <mxGeometry relative="1" as="geometry" />
        </mxCell>
        <mxCell id="77w_7Mb7cASkEfUO3HJ_-46" style="rounded=0;orthogonalLoop=1;jettySize=auto;html=1;exitX=1;exitY=0.3333333333333333;exitDx=0;exitDy=0;exitPerimeter=0;entryX=0;entryY=0.5;entryDx=0;entryDy=0;" parent="1" source="77w_7Mb7cASkEfUO3HJ_-2" target="77w_7Mb7cASkEfUO3HJ_-29" edge="1">
          <mxGeometry relative="1" as="geometry" />
        </mxCell>
        <mxCell id="77w_7Mb7cASkEfUO3HJ_-47" style="rounded=0;orthogonalLoop=1;jettySize=auto;html=1;exitX=1;exitY=0.3333333333333333;exitDx=0;exitDy=0;exitPerimeter=0;entryX=0;entryY=0.5;entryDx=0;entryDy=0;" parent="1" source="77w_7Mb7cASkEfUO3HJ_-2" target="77w_7Mb7cASkEfUO3HJ_-30" edge="1">
          <mxGeometry relative="1" as="geometry" />
        </mxCell>
        <mxCell id="77w_7Mb7cASkEfUO3HJ_-48" style="rounded=0;orthogonalLoop=1;jettySize=auto;html=1;exitX=1;exitY=0.3333333333333333;exitDx=0;exitDy=0;exitPerimeter=0;entryX=0;entryY=0.5;entryDx=0;entryDy=0;" parent="1" source="77w_7Mb7cASkEfUO3HJ_-2" target="77w_7Mb7cASkEfUO3HJ_-31" edge="1">
          <mxGeometry relative="1" as="geometry" />
        </mxCell>
        <mxCell id="77w_7Mb7cASkEfUO3HJ_-2" value="Ведущий" style="shape=umlActor;verticalLabelPosition=bottom;verticalAlign=top;html=1;outlineConnect=0;" parent="1" vertex="1">
          <mxGeometry x="150" y="224" width="30" height="60" as="geometry" />
        </mxCell>
        <mxCell id="77w_7Mb7cASkEfUO3HJ_-32" style="rounded=0;orthogonalLoop=1;jettySize=auto;html=1;entryX=0;entryY=0.5;entryDx=0;entryDy=0;exitX=1;exitY=0.3333333333333333;exitDx=0;exitDy=0;exitPerimeter=0;" parent="1" source="77w_7Mb7cASkEfUO3HJ_-3" target="77w_7Mb7cASkEfUO3HJ_-5" edge="1">
          <mxGeometry relative="1" as="geometry" />
        </mxCell>
        <mxCell id="77w_7Mb7cASkEfUO3HJ_-33" style="rounded=0;orthogonalLoop=1;jettySize=auto;html=1;entryX=0;entryY=0.5;entryDx=0;entryDy=0;exitX=1;exitY=0.3333333333333333;exitDx=0;exitDy=0;exitPerimeter=0;" parent="1" source="77w_7Mb7cASkEfUO3HJ_-3" target="77w_7Mb7cASkEfUO3HJ_-8" edge="1">
          <mxGeometry relative="1" as="geometry">
            <mxPoint x="210" y="-200" as="sourcePoint" />
          </mxGeometry>
        </mxCell>
        <mxCell id="77w_7Mb7cASkEfUO3HJ_-34" style="rounded=0;orthogonalLoop=1;jettySize=auto;html=1;entryX=0;entryY=0.5;entryDx=0;entryDy=0;exitX=1;exitY=0.3333333333333333;exitDx=0;exitDy=0;exitPerimeter=0;" parent="1" source="77w_7Mb7cASkEfUO3HJ_-3" target="77w_7Mb7cASkEfUO3HJ_-10" edge="1">
          <mxGeometry relative="1" as="geometry">
            <mxPoint x="210" y="-200" as="sourcePoint" />
          </mxGeometry>
        </mxCell>
        <mxCell id="77w_7Mb7cASkEfUO3HJ_-36" style="rounded=0;orthogonalLoop=1;jettySize=auto;html=1;entryX=0;entryY=0.5;entryDx=0;entryDy=0;exitX=1;exitY=0.3333333333333333;exitDx=0;exitDy=0;exitPerimeter=0;" parent="1" source="77w_7Mb7cASkEfUO3HJ_-3" target="77w_7Mb7cASkEfUO3HJ_-12" edge="1">
          <mxGeometry relative="1" as="geometry" />
        </mxCell>
        <mxCell id="77w_7Mb7cASkEfUO3HJ_-37" style="rounded=0;orthogonalLoop=1;jettySize=auto;html=1;entryX=0;entryY=0.5;entryDx=0;entryDy=0;exitX=1;exitY=0.3333333333333333;exitDx=0;exitDy=0;exitPerimeter=0;" parent="1" source="77w_7Mb7cASkEfUO3HJ_-3" target="77w_7Mb7cASkEfUO3HJ_-14" edge="1">
          <mxGeometry relative="1" as="geometry" />
        </mxCell>
        <mxCell id="77w_7Mb7cASkEfUO3HJ_-3" value="Гость" style="shape=umlActor;verticalLabelPosition=bottom;verticalAlign=top;html=1;outlineConnect=0;" parent="1" vertex="1">
          <mxGeometry x="150" y="-360" width="30" height="60" as="geometry" />
        </mxCell>
        <mxCell id="77w_7Mb7cASkEfUO3HJ_-5" value="1. Регистрация" style="ellipse;whiteSpace=wrap;html=1;" parent="1" vertex="1">
          <mxGeometry x="303.75" y="-500" width="176.25" height="40" as="geometry" />
        </mxCell>
        <mxCell id="77w_7Mb7cASkEfUO3HJ_-6" value="1.&amp;nbsp;Авторизация" style="ellipse;whiteSpace=wrap;html=1;" parent="1" vertex="1">
          <mxGeometry x="303.75" y="20" width="176.25" height="40" as="geometry" />
        </mxCell>
        <mxCell id="77w_7Mb7cASkEfUO3HJ_-7" value="1.&amp;nbsp;Авторизация" style="ellipse;whiteSpace=wrap;html=1;" parent="1" vertex="1">
          <mxGeometry x="694" y="-500" width="176" height="30" as="geometry" />
        </mxCell>
        <mxCell id="77w_7Mb7cASkEfUO3HJ_-8" value="2. Просмотр информации о доступных викторинах" style="ellipse;whiteSpace=wrap;html=1;" parent="1" vertex="1">
          <mxGeometry x="303.75" y="-450" width="176.25" height="70" as="geometry" />
        </mxCell>
        <mxCell id="77w_7Mb7cASkEfUO3HJ_-9" value="2.&amp;nbsp;Просмотр информации о доступных викторинах" style="ellipse;whiteSpace=wrap;html=1;" parent="1" vertex="1">
          <mxGeometry x="690" y="-460" width="180" height="60" as="geometry" />
        </mxCell>
        <mxCell id="77w_7Mb7cASkEfUO3HJ_-10" value="3. Просмотр информации о существующих играх" style="ellipse;whiteSpace=wrap;html=1;" parent="1" vertex="1">
          <mxGeometry x="303.75" y="-370" width="176.25" height="60" as="geometry" />
        </mxCell>
        <mxCell id="77w_7Mb7cASkEfUO3HJ_-11" value="3.&amp;nbsp;Просмотр информации о существующих играх" style="ellipse;whiteSpace=wrap;html=1;" parent="1" vertex="1">
          <mxGeometry x="690" y="-390" width="180" height="50" as="geometry" />
        </mxCell>
        <mxCell id="77w_7Mb7cASkEfUO3HJ_-12" value="4.&amp;nbsp;Просмотр&lt;div&gt;рейтингов&amp;nbsp;&lt;span style=&quot;background-color: initial;&quot;&gt;других игроков&lt;/span&gt;&lt;div&gt;по прохождению&lt;/div&gt;&lt;div&gt;викторин&lt;/div&gt;&lt;/div&gt;" style="ellipse;whiteSpace=wrap;html=1;" parent="1" vertex="1">
          <mxGeometry x="303.75" y="-290" width="176.25" height="80" as="geometry" />
        </mxCell>
        <mxCell id="77w_7Mb7cASkEfUO3HJ_-13" value="4.&amp;nbsp;Просмотр&lt;div&gt;рейтингов&amp;nbsp;&lt;span style=&quot;background-color: initial;&quot;&gt;других игроков&lt;/span&gt;&lt;div&gt;по прохождению&lt;/div&gt;&lt;div&gt;викторин&lt;/div&gt;&lt;/div&gt;" style="ellipse;whiteSpace=wrap;html=1;" parent="1" vertex="1">
          <mxGeometry x="694" y="-330" width="176" height="80" as="geometry" />
        </mxCell>
        <mxCell id="77w_7Mb7cASkEfUO3HJ_-14" value="5.&amp;nbsp;Просмотр профилей пользователей" style="ellipse;whiteSpace=wrap;html=1;" parent="1" vertex="1">
          <mxGeometry x="303.75" y="-190" width="176.25" height="60" as="geometry" />
        </mxCell>
        <mxCell id="77w_7Mb7cASkEfUO3HJ_-15" value="5.&amp;nbsp;Просмотр профилей пользователей" style="ellipse;whiteSpace=wrap;html=1;" parent="1" vertex="1">
          <mxGeometry x="694" y="-240" width="176" height="60" as="geometry" />
        </mxCell>
        <mxCell id="77w_7Mb7cASkEfUO3HJ_-16" value="6.&amp;nbsp;Создание игровых &lt;br&gt;комнат" style="ellipse;whiteSpace=wrap;html=1;" parent="1" vertex="1">
          <mxGeometry x="694" y="-170" width="176" height="60" as="geometry" />
        </mxCell>
        <mxCell id="77w_7Mb7cASkEfUO3HJ_-17" value="7.&amp;nbsp;Редактирование личной информации" style="ellipse;whiteSpace=wrap;html=1;" parent="1" vertex="1">
          <mxGeometry x="694" y="-100" width="176" height="60" as="geometry" />
        </mxCell>
        <mxCell id="77w_7Mb7cASkEfUO3HJ_-18" value="8.&amp;nbsp;Присоединение&lt;div&gt;к играм&lt;/div&gt;" style="ellipse;whiteSpace=wrap;html=1;" parent="1" vertex="1">
          <mxGeometry x="694" y="-30" width="176" height="45" as="geometry" />
        </mxCell>
        <mxCell id="77w_7Mb7cASkEfUO3HJ_-19" value="9.&amp;nbsp;Прохождение &lt;br&gt;викторин" style="ellipse;whiteSpace=wrap;html=1;" parent="1" vertex="1">
          <mxGeometry x="694" y="30" width="176" height="45" as="geometry" />
        </mxCell>
        <mxCell id="77w_7Mb7cASkEfUO3HJ_-20" value="10.&amp;nbsp;Просмотр результатов прохождения викторин" style="ellipse;whiteSpace=wrap;html=1;" parent="1" vertex="1">
          <mxGeometry x="694" y="85" width="176" height="70" as="geometry" />
        </mxCell>
        <mxCell id="77w_7Mb7cASkEfUO3HJ_-21" value="11.&amp;nbsp;Принятие участия&lt;div&gt;в играх&lt;/div&gt;" style="ellipse;whiteSpace=wrap;html=1;" parent="1" vertex="1">
          <mxGeometry x="694" y="166" width="176" height="60" as="geometry" />
        </mxCell>
        <mxCell id="77w_7Mb7cASkEfUO3HJ_-22" value="12.&amp;nbsp;Просмотр результатов&lt;div&gt;игр и рейтинга игроков в игровой комнате&lt;/div&gt;" style="ellipse;whiteSpace=wrap;html=1;" parent="1" vertex="1">
          <mxGeometry x="694" y="234" width="176" height="80" as="geometry" />
        </mxCell>
        <mxCell id="77w_7Mb7cASkEfUO3HJ_-23" value="13.&amp;nbsp;Размещение &lt;br&gt;комментариев к&amp;nbsp;&lt;div&gt;завершенной игре&lt;/div&gt;" style="ellipse;whiteSpace=wrap;html=1;" parent="1" vertex="1">
          <mxGeometry x="694" y="322" width="176" height="68" as="geometry" />
        </mxCell>
        <mxCell id="77w_7Mb7cASkEfUO3HJ_-25" value="14.&amp;nbsp;Размещение&lt;div&gt;комментариев к пройденной &lt;br&gt;викторине&lt;/div&gt;" style="ellipse;whiteSpace=wrap;html=1;" parent="1" vertex="1">
          <mxGeometry x="694" y="400" width="176" height="60" as="geometry" />
        </mxCell>
        <mxCell id="77w_7Mb7cASkEfUO3HJ_-26" value="2.&amp;nbsp;Создание вопросов и вариантов ответов для &lt;br&gt;конкретной игры" style="ellipse;whiteSpace=wrap;html=1;" parent="1" vertex="1">
          <mxGeometry x="303.75" y="68" width="176.25" height="70" as="geometry" />
        </mxCell>
        <mxCell id="77w_7Mb7cASkEfUO3HJ_-27" value="3.&amp;nbsp;Запуск игры" style="ellipse;whiteSpace=wrap;html=1;" parent="1" vertex="1">
          <mxGeometry x="303.75" y="148" width="176.25" height="50" as="geometry" />
        </mxCell>
        <mxCell id="77w_7Mb7cASkEfUO3HJ_-28" value="4.&amp;nbsp;Переход к следующему вопросу" style="ellipse;whiteSpace=wrap;html=1;" parent="1" vertex="1">
          <mxGeometry x="303.75" y="214" width="176.25" height="60" as="geometry" />
        </mxCell>
        <mxCell id="77w_7Mb7cASkEfUO3HJ_-29" value="5.&amp;nbsp;Завершение игры" style="ellipse;whiteSpace=wrap;html=1;" parent="1" vertex="1">
          <mxGeometry x="303.75" y="284" width="176.25" height="50" as="geometry" />
        </mxCell>
        <mxCell id="77w_7Mb7cASkEfUO3HJ_-30" value="6. Размещение&amp;nbsp;&lt;div&gt;комментариев&lt;div&gt;к завершенной игре&lt;/div&gt;&lt;/div&gt;" style="ellipse;whiteSpace=wrap;html=1;" parent="1" vertex="1">
          <mxGeometry x="303.75" y="342" width="176.25" height="70" as="geometry" />
        </mxCell>
        <mxCell id="77w_7Mb7cASkEfUO3HJ_-31" value="7. Удаление&amp;nbsp;&lt;div&gt;комментариев&lt;/div&gt;" style="ellipse;whiteSpace=wrap;html=1;" parent="1" vertex="1">
          <mxGeometry x="303.75" y="422" width="176.25" height="38" as="geometry" />
        </mxCell>
      </root>
    </mxGraphModel>
  </diagram>
</mxfile>
